<?xml version="1.0" encoding="utf-8"?>
<!-- Generator: Adobe Illustrator 22.1.0, SVG Export Plug-In . SVG Version: 6.00 Build 0)  -->
<svg version="1.1" id="Слой_1" xmlns="http://www.w3.org/2000/svg" xmlns:xlink="http://www.w3.org/1999/xlink" x="0px" y="0px"
	 viewBox="0 0 698.6 253.5" style="enable-background:new 0 0 698.6 253.5;" xml:space="preserve">
<style type="text/css">
	.st0{fill:#D5D3D1;}
</style>
<title>black</title>
<g id="Слой_2_1_">
	<g id="Layer_1">
		<path class="st0" d="M166.1,0.7c17.8-2.2,36.7,0.9,51.6,11.2c12.9,9,22,22.4,25.4,37.7c4.4,19,2.1,40-8.4,56.7
			c-8.2,12.9-20.7,22.5-35.4,26.9c-16.5,5-34.2,4.4-50.3-1.7c-12.1-4.6-22.4-12.8-29.6-23.5C109.2,92.8,106,73.4,109,55.5
			c2.5-15.5,10.2-30.3,22.5-40.3C141.3,7.1,153.6,2.3,166.1,0.7z M166.5,15.3c-10.3,2.3-19.1,9.3-24.6,18.1
			c-9.4,14.7-11.7,33.2-8.1,50.2c2.6,12.1,8.8,24,19.2,31.1c11.5,8.3,27.4,9.6,40.3,4.1c8.9-3.7,16-11,20.5-19.5
			c6.8-12.8,8.6-27.7,6.6-41.9c-2.1-13.6-8.1-27.3-19.5-35.6C191.1,14.5,178.1,12.6,166.5,15.3z"/>
		<path class="st0" d="M265.2,13.8C275,3.3,290-0.6,303.9,0.5c8.5,0.5,16.6,3.6,23.2,8.9c0.8,0.8,2.4,1.6,1.6,3
			c-2.4,6.2-5.1,12.3-7.6,18.4l-3.4-1.3c-1.5-5.4-5.2-9.9-10.1-12.5c-7.2-3.6-16.5-3.7-23.1,1.1c-6.6,4.5-9.9,13.7-7,21.3
			c1.7,4.8,5.8,8.4,10,11c7.5,4.7,16.4,6.5,24.1,10.6c8.5,4.4,16.7,10.3,21.3,18.8c4.5,8.2,4.4,18.3,1.5,27.1
			c-3.6,10.8-11.5,19.6-21.8,24.4c-11.3,5.6-24.5,6-36.6,3.3c-9.2-2.1-18-6.7-24.3-13.8c2.1-7.2,4.2-14.4,6.3-21.6l3.8,1.2
			c1.8,9.3,9.5,16.4,18.1,19.6c8,2.9,17.4,3.9,25.1-0.3c9.9-5.4,13.8-19.3,8-29c-4.1-6.1-10.8-9.7-17.2-12.7
			c-10.6-4.7-22.3-8-30.7-16.3C252.3,49,253.2,26.4,265.2,13.8z"/>
		<path class="st0" d="M26,2c13.2,0.2,26.5-1.5,39.5,1.3c9.1,2,18,6.4,23.8,13.9c8,10.3,8.8,25.2,3,36.7c-5.4,10.8-16.3,18-28,20.2
			C75.5,87.4,86.2,101,97,114.6c10.8,12.8,22.9,25,37.6,33.2c10,5.6,21.5,9,33.1,8.1c0.8,1.7,1.6,3.4,2.4,5c-13.8,4.3-29,5.8-43,1.4
			c-14-4.3-25.8-13.6-36.1-23.8c-13.6-13.8-25.3-29.3-37.3-44.5C47.9,86.6,42,79.4,36.1,72.1c0.5-1.2,1-2.5,1.5-3.7
			c10.4-0.3,21.4-2.8,29-10.2C76.4,48.8,77.1,31,67,21.6c-9.6-7.9-23-7.4-34.7-6.9c-0.2,36,0,71.9-0.1,107.9
			c-0.4,4.2,2.4,7.8,3.9,11.5c-10.4,0-20.8,0-31.2,0c1.5-2.6,3.4-5.1,4.7-7.8c0.2-2.9,0.3-5.7,0.2-8.6c0-34,0-68.1,0-102.1
			C10.1,10.7,7,6.7,5.5,2.3C12.3,2.4,19.1,1.9,26,2z"/>
		<path class="st0" d="M346,2.3c10.5,0,21,0,31.4,0c-1.5,3.6-4.2,7.1-3.9,11.2c0.1,15.4,0,30.8,0,46.2H443c0-15.4,0-30.9,0-46.3
			c0.5-4.4-3.2-7.6-5-11.2c10.5-0.1,21,0,31.5,0c-1.6,3.6-4.2,7.1-4,11.2c0,36.7,0,73.3,0,109.9c-0.1,3.9,2.5,7.1,3.9,10.5
			c-10.4,0-20.9,0-31.3,0c1.6-3.5,5.2-6.4,5-10.5c0-16.6,0-33.2,0-49.8h-69.5c0,16.6,0,33.2,0,49.7c-0.1,3.9,2.5,7.1,3.9,10.5
			c-10.4,0-20.9,0-31.3,0c1.6-3.4,5.1-6.3,5-10.4c0-34.7-0.1-69.4-0.1-104.1c0.1-3,0.1-6-0.2-9C349.5,7.6,347.5,5.1,346,2.3z"/>
		<path class="st0" d="M482.5,2.3c27.1,0,54.1,0,81.2,0c-2.1,6-4.1,12-6.2,18.1c-4.5-1.3-8.8-3.3-13.3-4.2
			c-11.6-0.2-23.2,0-34.8-0.1c0,14.7,0,29.3,0,44c13.6,0,27.2,0,40.8,0c2-0.1,4-0.3,6-0.9c-1.8,4.8-3.5,9.7-5.3,14.6
			c-13.8,0-27.7,0-41.5,0V120c12.9,0,25.8,0,38.7,0c7.1,0.3,13.7-2.8,20.5-4.2c-2,6.1-4.2,12.1-6.3,18.2c-26.5,0-52.9,0-79.4,0
			c1.4-4.1,3.9-8,3.7-12.5c-0.1-35.7,0-71.3,0-107C486.3,10.2,483.7,6.4,482.5,2.3z"/>
		<path class="st0" d="M577.3,2.3c8.3-0.1,16.6,0,24.9,0c24.8,27.4,49.4,54.9,74,82.4c0-23.7,0-47.4,0-71.2
			c0.4-4.4-3.2-7.6-5.1-11.2c9.1,0,18.3,0,27.4,0c-1.5,3.7-4.2,7.1-4.1,11.3c0,41.3,0,82.6,0,123.9c-30.7-33.8-61.3-67.6-92-101.3
			c0,27.5,0,54.9,0,82.4c-0.1,2.6,0,5.2,0.2,7.8c1,2.7,2.3,5.2,3.5,7.7c-9,0-18,0-27.1,0c1.7-3.4,5.1-6.4,5.1-10.4
			c0-35.7,0-71.4,0-107.1C584.7,10.9,579.6,7.1,577.3,2.3z"/>
		<path class="st0" d="M0,153.6c28.7,0,57.4,0,86.2,0c2.7,2.1,6.5,3.8,6.8,7.7c-31,0.2-62,0-92.9,0.1V153.6z"/>
		<path class="st0" d="M188.2,153.6c169.2,0,338.4,0,507.6,0c0,2.6,0,5.2,0,7.7c-167.2,0-334.4,0-501.5,0c-1.9-1.5-3.9-3-5.8-4.5
			C188.3,155.8,188.2,154.7,188.2,153.6z"/>
		<path class="st0" d="M20.5,173.5c7.4,1.4,15,1.4,22.4,0v2.9c-1.8,0.3-3.6,0.9-5.3,1.7c-0.8,1.2-0.5,2.8-0.8,4.2
			c6.4,0.8,13.1,2,18.1,6.3c7,5.9,7.2,17.4,1.6,24.4c-4.7,6.1-12.5,8.4-19.8,9.6c0.5,1.8-0.2,4.7,2.3,5c1.3,0.4,2.6,0.8,3.9,1.1
			c0,0.7,0,2.1,0.1,2.7c-7.5,0.1-15.1,0.1-22.6,0c-0.5-3.5,3.1-3.2,5.3-4.4c1.2-1.1,0.6-3,1-4.4c-6.7-0.7-14-2-19-6.9
			c-6.7-6.2-6.4-17.7-0.6-24.4c4.8-5.7,12.4-8.1,19.6-8.9c-0.1-1.3-0.2-2.6-0.4-4c-1.5-1.4-3.6-1.5-5.5-1.9
			C20.7,175.9,20.6,174.3,20.5,173.5z M17.3,191.9c-4.3,4.8-3.6,12.1-1.7,17.8c1.6,4.8,6.4,7.3,10.9,8.7c0.2-10.4,0.1-20.7,0.1-31
			C23.2,188.1,19.5,189.1,17.3,191.9z M37,187.8c0,10.2,0,20.6,0,30.9c4.8-1.1,9.9-3.8,11.4-8.9c1.3-5.1,0.7-10.4-1.5-15.1
			C44.9,190.9,40.9,188.9,37,187.8z"/>
		<path class="st0" d="M74.4,173.6c4.8-1.3,8.6,4.2,7.1,8.5c-0.8,3.7-5.4,5.8-8.6,3.6C68.1,183.2,69,174.9,74.4,173.6z"/>
		<path class="st0" d="M339.8,174.4c2.2-2.1,5.2,0,6.2,2.3c0.7,2.1-2.6,3.7-1.3,5.8c3.2,1.8,7.2,1.5,10.1-0.8
			c-0.9-1.4-1.8-2.7-2.8-4.1c1.1-2.1,3-4.9,5.8-3.8c4.2,1.7,4.4,7.9,0.7,10.2c-5.5,3.4-12.5,3.5-18.1,0.2
			C337,182.2,336.3,176.7,339.8,174.4z"/>
		<path class="st0" d="M65,194.3c5.4-0.7,10.8-1.2,16.2-1.8c-1,11-0.4,22.1-0.5,33.1c0,2.7,3.5,2.6,5.3,3.4c0,0.6,0.2,1.9,0.2,2.5
			c-6.9,0-13.8,0-20.7,0c-0.4-3.3,3.3-3,5.3-4.3c0.9-3.1,0.3-6.5,0.5-9.7c-0.2-5.9,0.5-11.9-0.4-17.8
			C70.6,196.2,65.3,197.8,65,194.3z"/>
		<path class="st0" d="M90.1,194.2c5,0.2,9.9-1,14.8-1.8c0,2.4,0.1,4.8,0.1,7.1c2.3-2.4,4.6-5,7.8-6.2c5.8-2.3,12.8,0.2,16.2,5.2
			c3.4,4.9,4,11.1,3.2,16.9c-1.4,7.9-7.6,15.1-15.5,16.8c-4,0.9-8-0.3-11.7-1.4c0.3,5.7-0.6,11.6,0.4,17.2c2.2,2.2,5.6,2,8.4,2.8
			c0,0.7,0.1,2,0.1,2.6c-7.5-1.3-15.2-1.3-22.7,0c0-0.6,0.1-1.8,0.1-2.5c1.6-0.9,4.8-0.8,4.4-3.4c0.1-15.1,0-30.1,0.1-45.2
			c-0.2-1.5,0.3-3.4-1-4.5C92.8,197.1,90.1,197,90.1,194.2z M110.7,198.3c-3.4,2.3-5.5,6-5.6,10.1c-0.2,5.3,0.1,10.7-0.1,16
			c2.8,2.8,6.7,5.1,10.8,3.9c3.8-1.2,5.3-5.4,5.9-9c0.8-5.6,0.7-11.6-1.6-16.8C118.7,199,114.3,196.1,110.7,198.3L110.7,198.3z"/>
		<path class="st0" d="M210.4,193.1c5.8-1.5,12-0.3,16.8,3.2c10.2,7.7,10,25.5-0.6,32.7c-7.7,5.4-19.2,4.6-25.7-2.4
			c-6.9-7.7-6.7-20.5,0.2-28.1C203.5,195.8,206.8,194,210.4,193.1z M211.4,197.1c-3.8,1.8-4.6,6.5-5,10.3
			c-0.3,6.2-0.2,13.1,3.6,18.2c2.6,3.6,8.7,4.1,11.6,0.6c2.6-3.7,2.6-8.4,2.7-12.7c-0.2-4.7-0.8-9.7-3.6-13.6
			C218.6,196.9,214.8,195.8,211.4,197.1L211.4,197.1z"/>
		<path class="st0" d="M351.5,193c6.4,0.7,12.8,0.7,19.2,0c0,0.6,0,1.8,0,2.4c-2,0.9-5.8,1.1-5.3,4.1c0,8.6-0.1,17.3,0,25.9
			c-0.2,2.8,3.2,2.8,5.2,3.5l0.2,2.4c-6.7,0.2-13.5,0.1-20.2,0.1c0-0.6,0.1-1.8,0.1-2.4c1.8-0.8,5.4-0.7,5.3-3.5
			c0.2-6.5,0-13,0-19.5c-4.6,6.2-9.8,12-13.8,18.6c-1.4,4.1,5.2,3.1,4.4,6.9c-6.4,0-12.8,0-19.2,0c0.1-0.6,0.2-1.9,0.2-2.6
			c1.6-0.6,3.5-0.6,4.8-1.7c0.7-2.4,0.3-5.1,0.4-7.6c-0.2-7.3,0.3-14.6-0.2-21.8c-1.8-1.9-5.8-1.1-5.4-4.7c6.8,0.7,13.7,0.7,20.5,0
			c0.7,4.1-5,2.4-5.4,5.6c-0.3,6.3,0,12.7-0.1,19.1c4.6-6.1,9.5-12,13.8-18.4C356.8,195.6,350.6,196.8,351.5,193z"/>
		<path class="st0" d="M459.6,195.1c4.9-2.9,10.8-3.3,16.1-1.3c3.3,1.5,5.6,4.7,5.9,8.3c0.8,8.4-0.3,16.9,0.6,25.4
			c0.1,3.9,5.9,0.5,5.9,3.9c-3.4,1.4-7.6,1.9-10.9,0c-1.8-1-2.5-3.1-3.3-4.9c-1.6,3.1-4.6,5.2-8,5.9c-4.9,0.7-11.2,0-14-4.7
			c-1.8-3.8-1-8.3,2-11.3c4.9-5.1,12.2-5.6,18.6-7.7c0-3.4,0.3-7.1-1.5-10.1c-1.5-2.5-5.7-2.9-7.4-0.4c-1.1,1.8-1.5,3.8-2.4,5.7
			c-2.5,2-5.9,2.1-9,2.3C451.9,201.2,455.5,197.2,459.6,195.1z M463.7,216.2c-2.4,2.7-2.6,6.9-1.5,10.2c1.5,3.4,6.7,2.4,8.4-0.3
			c2.7-4,1.7-9.1,2-13.6C469.4,213.2,466,213.8,463.7,216.2L463.7,216.2z"/>
		<path class="st0" d="M535.6,195.1c4.9-2.9,10.8-3.4,16.1-1.3c3.3,1.5,5.6,4.7,5.9,8.4c0.8,8.4-0.3,16.9,0.6,25.3
			c0.3,3.7,5.3,0.8,6.3,3.9c-3.6,1.2-7.8,2.1-11.3,0c-1.8-1-2.5-3.1-3.3-4.8c-3.8,7.4-14.9,7.9-20.7,2.9c-3.4-3.5-2.7-9.6,0.7-12.9
			c4.8-5.1,12.3-5.7,18.6-7.8c0-3.4,0.3-7.1-1.5-10.2c-1.5-2.5-5.7-2.9-7.4-0.3c-1.1,1.8-1.5,3.8-2.4,5.7c-2.5,2-5.9,2.1-9,2.3
			C527.9,201.2,531.5,197.3,535.6,195.1z M540.2,215.8c-3,2.8-3.3,7.7-1.7,11.3c2.2,2.9,7,1.4,8.5-1.5c2.2-4,1.3-8.7,1.6-13.1
			C545.6,213.2,542.5,213.7,540.2,215.8z"/>
		<path class="st0" d="M570.1,195.4c7.3-3.2,16.2-4.2,23.5-0.4c3.9,2.2,5.4,7.2,3.2,11.2c-1.5,2.8-4.5,4.1-7.4,5.1
			c3.3,0.8,7.2,1.9,8.8,5.2c2.2,4.8,0.3,10.5-4.4,13c-7.9,4.1-17.2,4.2-25.2,0.2c-0.2-3.4-0.3-6.8-0.4-10.1h2.7
			c1,2.8,1.7,6.1,4.4,7.7c4.7,3.1,13.3,0.8,13.5-5.6c0.7-3.5-1.7-6.4-4.7-7.8c-2.6,0.4-5.5,1.8-8,0.5c-1.3-1.5-0.7-3.5-0.9-5.2
			c2.5,0.3,5,0.5,7.5,0.9c3.6-1.2,6.2-4.7,5.3-8.6c-0.9-5.5-8.6-6.3-12.3-3.2c-2.8,1.7-2,7-6.2,6.6
			C569.7,201.7,569.9,198.5,570.1,195.4z"/>
		<path class="st0" d="M138.9,193.7c4.7-0.2,9.5-0.3,14.2-0.1c1.8-0.3,2.2,1.9,2.9,3.1c3,7.5,6,15,8.9,22.5
			c3.5-8.4,6.4-17.1,10.4-25.2c4.7-0.9,9.6-0.1,14.3-0.4c-0.1,0.7-0.3,2-0.4,2.7c-1.6,0.4-3.2,0.8-4.8,1.2
			c-0.2,7.4,0.6,14.8,0.8,22.1c0.2,2.6-0.1,5.2,0.7,7.7c2,1.2,5.3,1.1,5.2,4.2c-6.8-0.7-13.7-0.7-20.6,0c-0.2-3.2,3.3-3.2,5.5-4.1
			c0.3-7.9-0.6-15.8-0.7-23.7c-3.8,9.1-7.1,18.3-11,27.4c-0.4,1.7-2.4,1.2-3.6,1.6c-4.1-10.1-8.2-20.1-12.4-30.1
			c-0.1,7.7-0.7,15.3-0.7,23c-0.3,3.7,6,1.9,5.6,6c-5.1-0.7-10.4-0.7-15.5-0.1c-0.3-4.1,6-2.2,5.7-6.1c0.3-8.6,0.9-17.3,1-25.9
			C144.9,195.7,138.6,197.7,138.9,193.7z"/>
		<path class="st0" d="M239.4,193.6c6.5,0,13,0,19.5,0c3.7,0.1,8,0.5,10.8,3.3c3,3,3,8,0,11c-0.1,0.1-0.2,0.2-0.3,0.3
			c-1.7,1.3-3.6,2.2-5.7,2.8c3.6,0.8,7.7,1.6,10.1,4.7c2.4,4,1.5,9.8-2.3,12.7c-3.6,2.8-8.3,3.3-12.7,3.3c-6.5,0-13,0-19.5,0
			c0.1-0.6,0.2-1.9,0.3-2.6c1.8-0.7,5.3-0.5,5.1-3.4c0.1-8.7,0.1-17.4,0-26.1c0.2-2.8-3.3-2.6-5.1-3.3
			C239.7,195.5,239.5,194.2,239.4,193.6z M254.4,197.4v12.3c2.5-0.2,5.6-0.2,7.1-2.6s1.5-6.2-0.9-8.1
			C258.8,197.5,256.5,197.7,254.4,197.4L254.4,197.4z M254.4,213.5c0,4.4,0,8.7,0,13.1c2.4,1.3,5.3,1.4,7.8,0.1
			c3.4-1.8,3.4-6.5,2.1-9.6C262.5,213.4,257.9,213.5,254.4,213.5L254.4,213.5z"/>
		<path class="st0" d="M279.4,193.6c6.7,0,13.4,0,20.1,0c-0.1,0.6-0.2,1.9-0.3,2.5c-1.6,0.6-3.4,0.7-4.8,1.8
			c-0.6,6.6-0.1,13.2-0.2,19.9c4.6-6.1,9.5-11.9,13.9-18.2c0.3-2.6-2.5-2.8-4.3-3.6l-0.2-2.5c6.4,0.1,12.8-0.2,19.1,0.2
			c-0.1,0.6-0.2,1.7-0.2,2.3l-4.9,1.5c-0.6,9.3-0.2,18.6-0.2,27.9c-0.2,2.9,3.1,2.8,5.1,3.6c0.1,0.6,0.2,1.9,0.3,2.5
			c-6.8,0.1-13.5,0.1-20.3,0.1c-0.8-4.1,5.9-2.2,5.5-6c0.1-6.4,0-12.8,0-19.2c-4.5,5.9-9.3,11.7-13.7,17.7c-1.2,2.8,1.2,4.6,3.7,4.9
			c0.1,0.6,0.3,1.9,0.4,2.6c-6.4,0-12.8,0-19.2,0c0.1-0.6,0.2-1.9,0.3-2.6c1.8-0.7,5.3-0.5,5.1-3.3c0.1-8.7,0.1-17.5,0-26.3
			c0.2-2.8-3.3-2.6-5-3.3C279.7,195.5,279.5,194.2,279.4,193.6z"/>
		<path class="st0" d="M393.9,193.7c5.1-0.3,10.3-0.1,15.4-0.2c4.1,8.3,7,17.1,10.6,25.6c3.5-8.3,6.4-17,10.4-25.1
			c4.6-1.1,9.6-0.2,14.4-0.4c-0.1,0.7-0.3,2-0.4,2.7c-1.6,0.4-3.2,0.8-4.8,1.1c-0.2,7.4,0.6,14.8,0.8,22.2c0.2,2.6-0.1,5.3,0.8,7.8
			c2,1.1,5.3,1.1,5.2,4.2c-6.8-0.7-13.7-0.7-20.6,0c-0.5-4.2,5.9-2.2,5.7-6c-0.1-7.3-0.7-14.5-0.9-21.8c-3.9,9.1-7.1,18.3-11,27.4
			c-0.5,1.6-2.4,1.2-3.6,1.6c-4.1-10.1-8.3-20.1-12.4-30.1c-0.1,7.6-0.7,15.3-0.7,22.9c-0.3,3.8,6,1.9,5.6,6
			c-5.1-0.7-10.3-0.7-15.5-0.1c-0.5-4.1,5.9-2.2,5.7-6.1c0.3-8.6,0.9-17.3,1-25.9C399.9,195.8,393.6,197.7,393.9,193.7z"/>
		<path class="st0" d="M490.4,193.6c10,0.2,20.2-0.5,30.1,0.4c1.5,3.8,1.8,8,2.8,12l-2.4,0.8c-1.3-2.8-2.2-6.3-5.1-8
			c-3.1-1.8-6.9-1.1-10.4-1.2c0.1,9.3-0.1,18.6,0.1,27.8c0.1,3,4,3,6.1,3.8c0,0.6,0.1,1.7,0.1,2.3c-7.1,0.2-14.2,0.1-21.3,0.1
			l0.3-2.6c1.8-0.7,5.3-0.5,5.1-3.3c0.1-8.7,0.1-17.5,0-26.3c0.1-2.8-3.3-2.5-5.1-3.2C490.7,195.5,490.5,194.2,490.4,193.6z"/>
		<path class="st0" d="M603.4,193.6c6.7,0,13.4,0,20.1,0l-0.3,2.6c-1.6,0.6-3.4,0.7-4.7,1.8c-0.6,6.6-0.1,13.2-0.2,19.9
			c4.7-6.1,9.5-11.9,13.9-18.2c0.3-2.6-2.6-2.8-4.3-3.6c0-0.6-0.1-1.8-0.2-2.4c6.4,0,12.7-0.1,19.1,0.1c-0.1,0.6-0.2,1.8-0.2,2.3
			c-1.9,0.8-5.4,0.8-5.1,3.6c-0.1,8.6-0.1,17.2,0,25.8c-0.2,2.9,3.2,2.8,5.1,3.6l0.2,2.5c-6.8,0.1-13.5,0.1-20.3,0
			c-0.8-4.1,5.8-2.2,5.5-5.9c0.1-6.4,0-12.9,0-19.3c-4.3,5.5-8.6,11-12.8,16.5c-1,1.2-1.4,2.9-0.8,4.4c1,1.1,2.5,1.2,3.7,1.8
			c0.1,0.6,0.3,1.9,0.4,2.5c-6.4,0-12.8,0-19.2,0c0.1-0.6,0.2-1.9,0.3-2.6c1.8-0.7,5.3-0.5,5.1-3.4c0.1-8.7,0.1-17.5,0-26.2
			c0.2-2.8-3.3-2.5-5.1-3.3C603.7,195.5,603.5,194.2,603.4,193.6z"/>
		<path class="st0" d="M651.4,193.6c6.7,0,13.4,0,20.2,0c-0.1,0.7-0.3,2-0.4,2.7c-1.6,0.5-3.4,0.6-4.7,1.8
			c-0.7,4.1-0.2,8.3-0.3,12.5h14.6c0-3.7,0.2-7.4-0.1-11.1c0.2-2.7-3.4-2.5-5.1-3.3l-0.2-2.6c6.7,0,13.4,0,20.1,0
			c0,0.6-0.2,1.9-0.2,2.5c-1.8,0.9-5.4,0.7-5,3.5c-0.1,8.7-0.1,17.4,0,26.1c-0.5,3.8,6.4,1.7,5.4,5.9c-6.8,0-13.6,0.1-20.4,0
			c-0.5-3.7,4.5-2.3,5.5-5c0.3-4,0-8,0.1-12c-4.9,0-9.7,0-14.6,0c0,4.3,0,8.5,0,12.8c2,1.1,6,0.9,5.3,4.1c-6.7,0-13.5,0-20.2,0
			c0.1-0.6,0.2-1.9,0.3-2.6c1.8-0.7,5.3-0.5,5.1-3.3c0.1-8.7,0.1-17.5,0-26.2c0.2-2.8-3.3-2.6-5.1-3.3
			C651.7,195.5,651.5,194.2,651.4,193.6z"/>
	</g>
</g>
</svg>
